<!DOCTYPE svg PUBLIC "-//W3C//DTD SVG 1.1//EN" "http://www.w3.org/Graphics/SVG/1.1/DTD/svg11.dtd">

<!-- Uploaded to: SVG Repo, www.svgrepo.com, Transformed by: SVG Repo Mixer Tools -->
<svg width="25px" height="25px" viewBox="0 -3.5 24 24" id="meteor-icon-kit__regular-reply" fill="none" xmlns="http://www.w3.org/2000/svg">

<g id="SVGRepo_bgCarrier" stroke-width="0"/>

<g id="SVGRepo_tracerCarrier" stroke-linecap="round" stroke-linejoin="round"/>

<g id="SVGRepo_iconCarrier">

<path fill-rule="evenodd" clip-rule="evenodd" d="M3.41421 6L5.70711 8.2929C6.09763 8.6834 6.09763 9.3166 5.70711 9.7071C5.31658 10.0976 4.68342 10.0976 4.29289 9.7071L0.292893 5.70711C-0.0976311 5.31658 -0.0976311 4.68342 0.292893 4.29289L4.29289 0.29289C4.68342 -0.09763 5.31658 -0.09763 5.70711 0.29289C6.09763 0.68342 6.09763 1.31658 5.70711 1.70711L3.41421 4H14C19.5228 4 24 8.4772 24 14V16.0312C24 16.5835 23.5523 17.0312 23 17.0312C22.4477 17.0312 22 16.5835 22 16.0312V14C22 9.5817 18.4183 6 14 6H3.41421z" fill="#F4F2EE"/>

</g>

</svg>